<?xml version="1.0" standalone="no"?><!DOCTYPE svg PUBLIC "-//W3C//DTD SVG 1.1//EN" "http://www.w3.org/Graphics/SVG/1.1/DTD/svg11.dtd"><svg t="1615991664278" class="icon" viewBox="0 0 1024 1024" version="1.1" xmlns="http://www.w3.org/2000/svg" p-id="2968" xmlns:xlink="http://www.w3.org/1999/xlink" width="200" height="200"><defs><style type="text/css"></style></defs><path d="M458.3936 498.688c-108.2368 0-196.352-88.064-196.352-196.352S350.1056 105.984 458.3936 105.984s196.352 88.064 196.352 196.352-88.064 196.352-196.352 196.352z m0-351.6928c-85.6576 0-155.392 69.6832-155.392 155.392S372.736 457.728 458.3936 457.728s155.392-69.6832 155.392-155.392-69.6832-155.3408-155.392-155.3408z" fill="#cdcdcd" p-id="2969"></path><path d="M570.0096 877.2608H157.6448c-38.5024 0-69.8368-31.3344-69.8368-69.8368v-52.3264c0-117.9648 58.9312-227.1744 157.5936-292.1984 15.6672-10.3424 36.9152-8.192 50.432 5.12 43.6736 42.8544 101.4272 66.4576 162.6112 66.4576s118.9376-23.6032 162.6112-66.4576c13.5168-13.312 34.7136-15.4624 50.3808-5.12 26.0608 17.152 49.7664 37.7856 70.4512 61.2864 6.4512 7.3216 9.0112 16.9984 7.0144 26.5728s-8.192 17.408-17.0496 21.5552c-83.5072 39.168-137.472 123.9552-137.472 216.1152 0 17.3056 1.8944 34.6112 5.632 51.5072a30.8224 30.8224 0 0 1-6.0416 25.9072 30.6432 30.6432 0 0 1-23.9616 11.4176z m-10.0352-28.4672zM267.3664 497.5104c-86.784 57.4464-138.5984 153.7536-138.5984 257.6384v52.3264c0 15.9232 12.9536 28.8768 28.8768 28.8768h399.872c-2.7648-15.8208-4.1472-31.8464-4.1472-47.9232 0-103.3216 57.9072-198.8096 148.6848-246.9888-15.872-16.5376-33.536-31.2832-52.5824-43.9296-51.3536 50.2784-119.1936 77.9776-191.0272 77.9776-71.8848 0-139.7248-27.6992-191.0784-77.9776z" fill="#cdcdcd" p-id="2970"></path><path d="M846.7968 912.896c-9.3696 0-18.3808-5.2224-22.8352-14.1312-5.2736-10.5472-15.7696-17.0496-27.4944-17.0496s-22.2208 6.5536-27.4432 17.0496a25.53856 25.53856 0 0 1-32.9728 12.032c-11.1104-4.8128-21.6576-11.008-31.4368-18.432-10.5984-8.0896-13.2096-23.1424-5.888-34.304a30.45888 30.45888 0 0 0 0.9728-32.2048 30.48448 30.48448 0 0 0-28.0064-15.3088c-13.4656 0.4608-24.9344-9.3696-26.4192-22.6304-0.6144-5.632-0.9728-11.264-0.9728-16.7424 0-6.4512 0.4096-13.0048 1.28-19.5584a25.58464 25.58464 0 0 1 26.2144-22.2208c11.5712 0.6144 22.1696-5.4272 27.904-15.36a30.6688 30.6688 0 0 0-0.4096-31.3856c-6.8096-11.1104-3.8912-25.9072 6.6048-33.6896a150.784 150.784 0 0 1 31.3856-17.9712c12.1344-5.12 26.0096-0.3072 32.3584 11.2128 5.4272 9.8304 15.7184 15.9744 26.9312 15.9744s21.504-6.144 26.9312-15.9744a25.3952 25.3952 0 0 1 32.3072-11.2128c11.0592 4.6592 21.6064 10.752 31.3856 17.9712 10.496 7.7824 13.4144 22.5792 6.6048 33.6896a30.6688 30.6688 0 0 0-0.4096 31.3856 30.72 30.72 0 0 0 27.904 15.36c13.1072-0.512 24.5248 9.216 26.2144 22.1696 0.8704 6.5024 1.28 13.1072 1.28 19.5584 0 5.4784-0.3072 11.1104-0.9216 16.6912-1.4848 13.312-13.312 23.0912-26.4192 22.6816a30.59712 30.59712 0 0 0-28.0576 15.3088 30.45888 30.45888 0 0 0 0.9728 32.2048c7.3216 11.1616 4.7104 26.2656-5.888 34.304a151.84384 151.84384 0 0 1-31.4368 18.432c-3.3792 1.4336-6.8608 2.1504-10.24 2.1504z m-50.3296-72.1408c22.0672 0 42.2912 9.8816 55.7056 26.5728l0.768-0.4608c-7.7312-19.968-6.1952-42.4448 4.8128-61.5424 10.8032-18.7392 29.1328-31.232 49.92-34.816v-1.2288a71.3216 71.3216 0 0 1-49.8688-34.816 71.54176 71.54176 0 0 1-5.5296-59.5968c-0.4608-0.256-0.9728-0.5632-1.4336-0.8192-13.4656 15.6672-33.2288 24.9856-54.3744 24.9856s-40.9088-9.3184-54.3744-24.9856c-0.4608 0.256-0.9728 0.5632-1.4336 0.8192 6.8608 19.5072 5.0176 41.2672-5.5296 59.5968-10.8032 18.688-29.1328 31.232-49.8688 34.816v1.2288c20.736 3.5328 39.0656 16.0768 49.92 34.816 11.008 19.0464 12.544 41.5744 4.8128 61.5424l0.768 0.4608c13.4144-16.6912 33.6896-26.5728 55.7056-26.5728z m-110.2336-83.9168z m176.4352-75.0592c0 0.0512 0 0.0512 0 0 0 0.0512 0 0.0512 0 0z m-128.4608-20.48s0 0.0512 0.0512 0.0512c0-0.0512 0-0.0512-0.0512-0.0512z" fill="#cdcdcd" p-id="2971"></path></svg>