<?xml version="1.0" standalone="no"?><!DOCTYPE svg PUBLIC "-//W3C//DTD SVG 1.1//EN" "http://www.w3.org/Graphics/SVG/1.1/DTD/svg11.dtd"><svg t="1615989601306" class="icon" viewBox="0 0 1024 1024" version="1.1" xmlns="http://www.w3.org/2000/svg" p-id="1971" xmlns:xlink="http://www.w3.org/1999/xlink" width="200" height="200"><defs><style type="text/css"></style></defs><path d="M512 36.571429c262.582857 0 475.428571 212.845714 475.428571 475.428571S774.582857 987.428571 512 987.428571 36.571429 774.582857 36.571429 512 249.417143 36.571429 512 36.571429z m0 232.96c-65.225143 0-119.04 4.059429-161.444571 12.196571a18.651429 18.651429 0 0 0-12.836572 9.344l-1.005714 2.157714-44.379429 113.078857H226.011429v12.434286c0 12.928 9.874286 23.552 22.473142 24.758857l2.395429 0.109715 26.697143 0.018285a55.954286 55.954286 0 0 1-4.077714 7.222857l-2.432 3.364572-37.174858 47.670857a37.302857 37.302857 0 0 0-7.753142 19.84l-0.128 3.108571V729.6c0 12.928 9.874286 23.552 22.473142 24.758857l2.395429 0.109714h111.030857c11.026286 0 20.114286-8.338286 21.266286-19.072l0.128-2.322285v-16.420572c0-2.358857 1.645714-4.333714 3.84-4.845714l1.133714-0.128h261.741714l1.133715 0.128c1.828571 0.438857 3.291429 1.865143 3.712 3.712l0.128 1.133714v16.420572l0.128 2.322285c1.097143 10.020571 9.069714 17.956571 19.090285 18.962286l2.176 0.109714h96.731429l2.395429-0.109714a24.868571 24.868571 0 0 0 22.363428-22.363428l0.109714-2.395429V524.818286l-0.128-3.108572a37.302857 37.302857 0 0 0-5.961142-17.298285l-1.792-2.523429-37.174858-47.670857-2.377142-3.254857-2.102858-3.437715-2.029714-3.913142h26.697143l2.395429-0.109715a24.868571 24.868571 0 0 0 22.363428-22.363428l0.109714-2.395429v-12.434286h-66.340571l-44.361143-113.078857-1.005714-2.157714a18.651429 18.651429 0 0 0-12.836572-9.344c-37.412571-7.168-83.712-11.190857-138.898285-12.032l-11.154286-0.128L512 269.531429zM345.380571 543.085714c2.358857 0 4.333714 1.645714 4.845715 3.84l0.128 1.133715v32.329142h-62.171429a24.868571 24.868571 0 0 1-24.758857-22.473142l-0.109714-2.395429v-12.434286h82.066285z m415.305143 0v12.434286l-0.109714 2.395429a24.868571 24.868571 0 0 1-22.363429 22.363428l-2.395428 0.109714h-62.171429v-32.329142l0.128-1.133715a4.973714 4.973714 0 0 1 3.712-3.712l1.133715-0.128H760.685714z m-136.777143 0v12.434286l-0.109714 2.395429a24.868571 24.868571 0 0 1-22.363428 22.363428l-2.395429 0.109714h-174.08l-2.395429-0.109714a24.868571 24.868571 0 0 1-22.363428-22.363428l-0.109714-2.395429v-12.434286h223.817142z" fill="#ffffff" p-id="1972"></path></svg>