<?xml version="1.0" standalone="no"?><!DOCTYPE svg PUBLIC "-//W3C//DTD SVG 1.1//EN" "http://www.w3.org/Graphics/SVG/1.1/DTD/svg11.dtd"><svg t="1616471467045" class="icon" viewBox="0 0 1024 1024" version="1.1" xmlns="http://www.w3.org/2000/svg" p-id="2120" xmlns:xlink="http://www.w3.org/1999/xlink" width="200" height="200"><defs><style type="text/css"></style></defs><path d="M512 887.808c207.872 0 375.808-168.448 375.808-375.808S719.872 136.192 512 136.192 136.192 304.128 136.192 512s167.936 375.808 375.808 375.808z m0 72.192c-247.296 0-448-200.704-448-448S264.704 64 512 64s448 200.704 448 448-200.704 448-448 448z" fill="#707070" p-id="2121"></path><path d="M240.128 512c0 35.328 28.672 64 64 64s64-28.672 64-64-28.672-64-64-64-64 28.672-64 64zM448 512c0 35.328 28.672 64 64 64s64-28.672 64-64-28.672-64-64-64-64 28.672-64 64zM655.872 512c0 35.328 28.672 64 64 64s64-28.672 64-64-28.672-64-64-64-64 28.672-64 64z" fill="#707070" p-id="2122"></path></svg>