<?xml version="1.0" standalone="no"?><!DOCTYPE svg PUBLIC "-//W3C//DTD SVG 1.1//EN" "http://www.w3.org/Graphics/SVG/1.1/DTD/svg11.dtd"><svg t="1615989102098" class="icon" viewBox="0 0 1024 1024" version="1.1" xmlns="http://www.w3.org/2000/svg" p-id="2867" xmlns:xlink="http://www.w3.org/1999/xlink" width="128" height="128"><defs><style type="text/css"></style></defs><path d="M512 917.6064C736 917.6064 917.6064 736 917.6064 512 917.6064 288 736 106.3936 512 106.3936 288 106.4064 106.3936 288 106.3936 512 106.4064 736 288 917.6064 512 917.6064zM512 1011.2C236.288 1011.2 12.8 787.712 12.8 512S236.288 12.8 512 12.8s499.2 223.488 499.2 499.2-223.488 499.2-499.2 499.2z" fill="#cdcdcd" p-id="2868"></path><path d="M512 643.2c35.3408 0 64 27.9424 64 62.4S547.3408 768 512 768s-64-27.9424-64-62.4 28.6592-62.4 64-62.4zM512 268.8a64 64 0 0 1 64 64v184a64 64 0 0 1-128 0V332.8a64 64 0 0 1 64-64z" fill="#cdcdcd" p-id="2869"></path></svg>